<mxfile host="app.diagrams.net" agent="Mozilla/5.0 (Macintosh; Intel Mac OS X 10_15_7) AppleWebKit/537.36 (KHTML, like Gecko) Chrome/131.0.0.0 Safari/537.36" version="26.0.3">
  <diagram name="Page-1" id="B-1VHTvCRnjkHwwDatwS">
    <mxGraphModel dx="1865" dy="1118" grid="1" gridSize="10" guides="1" tooltips="1" connect="1" arrows="1" fold="1" page="1" pageScale="1" pageWidth="850" pageHeight="1100" math="0" shadow="0">
      <root>
        <mxCell id="0" />
        <mxCell id="1" parent="0" />
        <mxCell id="7eTC2k8wkOf74maHDj2P-55" value="" style="rounded=0;whiteSpace=wrap;html=1;" vertex="1" parent="1">
          <mxGeometry x="10" y="117" width="1820" height="783" as="geometry" />
        </mxCell>
        <mxCell id="7eTC2k8wkOf74maHDj2P-93" value="" style="rounded=0;whiteSpace=wrap;html=1;" vertex="1" parent="1">
          <mxGeometry x="1610" y="200" width="190" height="410" as="geometry" />
        </mxCell>
        <mxCell id="7eTC2k8wkOf74maHDj2P-94" value="&lt;font style=&quot;font-size: 18px;&quot;&gt;&lt;b&gt;Visualization &amp;amp; Analysis&lt;/b&gt;&lt;/font&gt;" style="text;html=1;align=center;verticalAlign=middle;whiteSpace=wrap;rounded=0;" vertex="1" parent="1">
          <mxGeometry x="1635" y="220.98000000000002" width="140" height="30" as="geometry" />
        </mxCell>
        <mxCell id="7eTC2k8wkOf74maHDj2P-86" value="" style="rounded=0;whiteSpace=wrap;html=1;" vertex="1" parent="1">
          <mxGeometry x="1300" y="200" width="190" height="410" as="geometry" />
        </mxCell>
        <mxCell id="7eTC2k8wkOf74maHDj2P-88" style="edgeStyle=orthogonalEdgeStyle;rounded=0;orthogonalLoop=1;jettySize=auto;html=1;" edge="1" parent="1" source="7eTC2k8wkOf74maHDj2P-80" target="7eTC2k8wkOf74maHDj2P-86">
          <mxGeometry relative="1" as="geometry" />
        </mxCell>
        <mxCell id="7eTC2k8wkOf74maHDj2P-80" value="" style="rounded=0;whiteSpace=wrap;html=1;" vertex="1" parent="1">
          <mxGeometry x="1033" y="200" width="190" height="410" as="geometry" />
        </mxCell>
        <mxCell id="7eTC2k8wkOf74maHDj2P-81" value="&lt;font style=&quot;font-size: 18px;&quot;&gt;&lt;b style=&quot;&quot;&gt;Enriched Data&lt;/b&gt;&lt;/font&gt;&lt;div&gt;&lt;font style=&quot;font-size: 18px;&quot;&gt;&lt;b style=&quot;&quot;&gt;Storage&lt;/b&gt;&lt;/font&gt;&lt;/div&gt;" style="text;html=1;align=center;verticalAlign=middle;whiteSpace=wrap;rounded=0;" vertex="1" parent="1">
          <mxGeometry x="1026" y="220.98000000000002" width="204" height="30" as="geometry" />
        </mxCell>
        <mxCell id="7eTC2k8wkOf74maHDj2P-68" value="" style="rounded=0;whiteSpace=wrap;html=1;" vertex="1" parent="1">
          <mxGeometry x="626.4" y="200" width="313.6" height="410" as="geometry" />
        </mxCell>
        <mxCell id="7eTC2k8wkOf74maHDj2P-77" style="edgeStyle=orthogonalEdgeStyle;rounded=0;orthogonalLoop=1;jettySize=auto;html=1;entryX=0;entryY=0.5;entryDx=0;entryDy=0;" edge="1" parent="1" source="7eTC2k8wkOf74maHDj2P-51" target="7eTC2k8wkOf74maHDj2P-68">
          <mxGeometry relative="1" as="geometry" />
        </mxCell>
        <mxCell id="7eTC2k8wkOf74maHDj2P-51" value="" style="rounded=0;whiteSpace=wrap;html=1;" vertex="1" parent="1">
          <mxGeometry x="350" y="200" width="190" height="410" as="geometry" />
        </mxCell>
        <mxCell id="7eTC2k8wkOf74maHDj2P-61" style="edgeStyle=orthogonalEdgeStyle;rounded=0;orthogonalLoop=1;jettySize=auto;html=1;" edge="1" parent="1" source="7eTC2k8wkOf74maHDj2P-50" target="7eTC2k8wkOf74maHDj2P-51">
          <mxGeometry relative="1" as="geometry" />
        </mxCell>
        <mxCell id="7eTC2k8wkOf74maHDj2P-50" value="" style="rounded=0;whiteSpace=wrap;html=1;" vertex="1" parent="1">
          <mxGeometry x="50" y="200" width="170" height="410" as="geometry" />
        </mxCell>
        <mxCell id="7eTC2k8wkOf74maHDj2P-1" value="" style="shape=image;verticalLabelPosition=bottom;labelBackgroundColor=default;verticalAlign=top;aspect=fixed;imageAspect=0;image=https://cdn4.iconfinder.com/data/icons/logos-and-brands/512/97_Docker_logo_logos-512.png;" vertex="1" parent="1">
          <mxGeometry x="360" y="663" width="129" height="129" as="geometry" />
        </mxCell>
        <mxCell id="7eTC2k8wkOf74maHDj2P-10" value="" style="shape=image;verticalLabelPosition=bottom;labelBackgroundColor=default;verticalAlign=top;aspect=fixed;imageAspect=0;image=https://www.iconpacks.net/icons/2/free-reddit-logo-icon-2436-thumb.png;" vertex="1" parent="1">
          <mxGeometry x="80" y="334" width="102" height="102" as="geometry" />
        </mxCell>
        <mxCell id="7eTC2k8wkOf74maHDj2P-103" style="edgeStyle=orthogonalEdgeStyle;rounded=0;orthogonalLoop=1;jettySize=auto;html=1;exitX=0.25;exitY=0;exitDx=0;exitDy=0;entryX=0.25;entryY=1;entryDx=0;entryDy=0;" edge="1" parent="1" source="7eTC2k8wkOf74maHDj2P-11" target="7eTC2k8wkOf74maHDj2P-101">
          <mxGeometry relative="1" as="geometry" />
        </mxCell>
        <mxCell id="7eTC2k8wkOf74maHDj2P-11" value="" style="shape=image;verticalLabelPosition=bottom;labelBackgroundColor=default;verticalAlign=top;aspect=fixed;imageAspect=0;image=https://upload.wikimedia.org/wikipedia/commons/thumb/e/ed/Pandas_logo.svg/2560px-Pandas_logo.svg.png;" vertex="1" parent="1">
          <mxGeometry x="690" y="480" width="172.81" height="70" as="geometry" />
        </mxCell>
        <mxCell id="7eTC2k8wkOf74maHDj2P-37" value="" style="shape=image;verticalLabelPosition=bottom;labelBackgroundColor=default;verticalAlign=top;aspect=fixed;imageAspect=0;image=https://cdn2.iconfinder.com/data/icons/amazon-aws-stencils/100/Database_copy_Amazon_RedShift-512.png;" vertex="1" parent="1">
          <mxGeometry x="1340" y="365.45" width="112" height="112" as="geometry" />
        </mxCell>
        <mxCell id="7eTC2k8wkOf74maHDj2P-38" value="" style="shape=image;verticalLabelPosition=bottom;labelBackgroundColor=default;verticalAlign=top;aspect=fixed;imageAspect=0;image=https://www.gliffy.com/sites/default/files/image/2020-06/Amazon-Simple-Storage-Service-S3_Bucket-with-Objects_dark-bg.png;" vertex="1" parent="1">
          <mxGeometry x="407" y="344.01" width="76" height="79.1" as="geometry" />
        </mxCell>
        <mxCell id="7eTC2k8wkOf74maHDj2P-39" value="" style="shape=image;verticalLabelPosition=bottom;labelBackgroundColor=default;verticalAlign=top;aspect=fixed;imageAspect=0;image=https://static-00.iconduck.com/assets.00/aws-quicksight-icon-2048x2048-6pz6utv5.png;" vertex="1" parent="1">
          <mxGeometry x="1669.11" y="380" width="71.78" height="71.78" as="geometry" />
        </mxCell>
        <mxCell id="7eTC2k8wkOf74maHDj2P-40" value="" style="shape=image;verticalLabelPosition=bottom;labelBackgroundColor=default;verticalAlign=top;aspect=fixed;imageAspect=0;image=https://www.gliffy.com/sites/default/files/image/2020-06/Amazon-Simple-Storage-Service-S3_Bucket-with-Objects_dark-bg.png;" vertex="1" parent="1">
          <mxGeometry x="1090" y="365.45000000000005" width="76" height="79.1" as="geometry" />
        </mxCell>
        <mxCell id="7eTC2k8wkOf74maHDj2P-43" value="" style="shape=image;verticalLabelPosition=bottom;labelBackgroundColor=default;verticalAlign=top;aspect=fixed;imageAspect=0;image=https://cdn-icons-png.flaticon.com/512/136/136443.png;" vertex="1" parent="1">
          <mxGeometry x="413" y="509" width="62" height="62" as="geometry" />
        </mxCell>
        <mxCell id="7eTC2k8wkOf74maHDj2P-47" value="" style="shape=image;verticalLabelPosition=bottom;labelBackgroundColor=default;verticalAlign=top;aspect=fixed;imageAspect=0;image=https://www.jumpingrivers.com/blog/parquet-file-format-big-data-r/parquet-logo.png;" vertex="1" parent="1">
          <mxGeometry x="1068" y="500" width="120" height="80" as="geometry" />
        </mxCell>
        <mxCell id="7eTC2k8wkOf74maHDj2P-52" value="&lt;font style=&quot;font-size: 14px;&quot;&gt;Python Reddit API (PRAW)&lt;/font&gt;" style="text;html=1;align=center;verticalAlign=middle;whiteSpace=wrap;rounded=0;" vertex="1" parent="1">
          <mxGeometry x="101" y="460" width="60" height="30" as="geometry" />
        </mxCell>
        <mxCell id="7eTC2k8wkOf74maHDj2P-54" value="" style="shape=image;verticalLabelPosition=bottom;labelBackgroundColor=default;verticalAlign=top;aspect=fixed;imageAspect=0;image=https://miro.medium.com/v2/resize:fit:1200/1*sDqMG4TKa0z6y66oD2HVnw.png;" vertex="1" parent="1">
          <mxGeometry x="517.67" y="660" width="132" height="132" as="geometry" />
        </mxCell>
        <mxCell id="7eTC2k8wkOf74maHDj2P-56" value="&lt;font style=&quot;font-size: 18px;&quot;&gt;&lt;b style=&quot;&quot;&gt;Data Source&lt;/b&gt;&lt;/font&gt;" style="text;html=1;align=center;verticalAlign=middle;whiteSpace=wrap;rounded=0;" vertex="1" parent="1">
          <mxGeometry x="80.5" y="219.01999999999998" width="109" height="30" as="geometry" />
        </mxCell>
        <mxCell id="7eTC2k8wkOf74maHDj2P-57" value="&lt;font style=&quot;font-size: 18px;&quot;&gt;&lt;b style=&quot;&quot;&gt;Raw Data Staging&lt;/b&gt;&lt;/font&gt;" style="text;html=1;align=center;verticalAlign=middle;whiteSpace=wrap;rounded=0;" vertex="1" parent="1">
          <mxGeometry x="343" y="219.02" width="204" height="30" as="geometry" />
        </mxCell>
        <mxCell id="7eTC2k8wkOf74maHDj2P-58" value="&lt;font style=&quot;font-size: 14px;&quot;&gt;S3 Bucket&lt;/font&gt;" style="text;html=1;align=center;verticalAlign=middle;whiteSpace=wrap;rounded=0;" vertex="1" parent="1">
          <mxGeometry x="415" y="432" width="60" height="30" as="geometry" />
        </mxCell>
        <mxCell id="7eTC2k8wkOf74maHDj2P-59" value="" style="shape=image;verticalLabelPosition=bottom;labelBackgroundColor=default;verticalAlign=top;aspect=fixed;imageAspect=0;image=https://miro.medium.com/v2/resize:fit:1200/1*sDqMG4TKa0z6y66oD2HVnw.png;" vertex="1" parent="1">
          <mxGeometry x="241.32999999999998" y="290" width="60" height="60" as="geometry" />
        </mxCell>
        <mxCell id="7eTC2k8wkOf74maHDj2P-62" value="&lt;font style=&quot;font-size: 16px;&quot;&gt;Extract &amp;amp; Load&lt;/font&gt;" style="text;html=1;align=center;verticalAlign=middle;whiteSpace=wrap;rounded=0;" vertex="1" parent="1">
          <mxGeometry x="241.33" y="360" width="60" height="30" as="geometry" />
        </mxCell>
        <mxCell id="7eTC2k8wkOf74maHDj2P-64" value="&lt;font style=&quot;font-size: 14px;&quot;&gt;Prompt Engineering &amp;amp; Text Data&lt;/font&gt;" style="text;html=1;align=center;verticalAlign=middle;whiteSpace=wrap;rounded=0;" vertex="1" parent="1">
          <mxGeometry x="650" y="406.45" width="60" height="30" as="geometry" />
        </mxCell>
        <mxCell id="7eTC2k8wkOf74maHDj2P-65" value="&lt;font style=&quot;font-size: 14px;&quot;&gt;Product Features Review Breakdown &amp;amp; User Sentiment&lt;/font&gt;" style="text;html=1;align=center;verticalAlign=middle;whiteSpace=wrap;rounded=0;" vertex="1" parent="1">
          <mxGeometry x="820" y="406" width="110" height="30" as="geometry" />
        </mxCell>
        <mxCell id="7eTC2k8wkOf74maHDj2P-66" value="&lt;font style=&quot;font-size: 18px;&quot;&gt;&lt;b style=&quot;&quot;&gt;Data Processing &amp;amp; Enrichment&lt;/b&gt;&lt;/font&gt;" style="text;html=1;align=center;verticalAlign=middle;whiteSpace=wrap;rounded=0;" vertex="1" parent="1">
          <mxGeometry x="666.4" y="219.02" width="220" height="30" as="geometry" />
        </mxCell>
        <mxCell id="7eTC2k8wkOf74maHDj2P-75" value="" style="shape=image;verticalLabelPosition=bottom;labelBackgroundColor=default;verticalAlign=top;aspect=fixed;imageAspect=0;image=https://miro.medium.com/v2/resize:fit:1200/1*sDqMG4TKa0z6y66oD2HVnw.png;" vertex="1" parent="1">
          <mxGeometry x="550" y="290" width="60" height="60" as="geometry" />
        </mxCell>
        <mxCell id="7eTC2k8wkOf74maHDj2P-76" value="&lt;font style=&quot;font-size: 16px;&quot;&gt;Extract&lt;/font&gt;" style="text;html=1;align=center;verticalAlign=middle;whiteSpace=wrap;rounded=0;" vertex="1" parent="1">
          <mxGeometry x="550" y="360" width="60" height="30" as="geometry" />
        </mxCell>
        <mxCell id="7eTC2k8wkOf74maHDj2P-82" value="&lt;font style=&quot;font-size: 14px;&quot;&gt;S3 Bucket&lt;/font&gt;" style="text;html=1;align=center;verticalAlign=middle;whiteSpace=wrap;rounded=0;" vertex="1" parent="1">
          <mxGeometry x="1098" y="456" width="60" height="30" as="geometry" />
        </mxCell>
        <mxCell id="7eTC2k8wkOf74maHDj2P-83" value="&lt;font style=&quot;font-size: 16px;&quot;&gt;Load&lt;/font&gt;" style="text;html=1;align=center;verticalAlign=middle;whiteSpace=wrap;rounded=0;" vertex="1" parent="1">
          <mxGeometry x="950" y="350" width="60" height="30" as="geometry" />
        </mxCell>
        <mxCell id="7eTC2k8wkOf74maHDj2P-84" style="edgeStyle=orthogonalEdgeStyle;rounded=0;orthogonalLoop=1;jettySize=auto;html=1;entryX=0;entryY=0.5;entryDx=0;entryDy=0;" edge="1" parent="1">
          <mxGeometry relative="1" as="geometry">
            <mxPoint x="937" y="409.06" as="sourcePoint" />
            <mxPoint x="1023" y="409.06" as="targetPoint" />
          </mxGeometry>
        </mxCell>
        <mxCell id="7eTC2k8wkOf74maHDj2P-85" value="&lt;font style=&quot;font-size: 14px;&quot;&gt;AWS Redshift&lt;/font&gt;" style="text;html=1;align=center;verticalAlign=middle;whiteSpace=wrap;rounded=0;" vertex="1" parent="1">
          <mxGeometry x="1366" y="480" width="60" height="30" as="geometry" />
        </mxCell>
        <mxCell id="7eTC2k8wkOf74maHDj2P-87" value="&lt;font style=&quot;font-size: 18px;&quot;&gt;&lt;b&gt;Serving Data Warehouse&lt;/b&gt;&lt;/font&gt;" style="text;html=1;align=center;verticalAlign=middle;whiteSpace=wrap;rounded=0;" vertex="1" parent="1">
          <mxGeometry x="1326" y="219.02" width="140" height="30" as="geometry" />
        </mxCell>
        <mxCell id="7eTC2k8wkOf74maHDj2P-89" value="&lt;font style=&quot;font-size: 16px;&quot;&gt;COPY&lt;/font&gt;" style="text;html=1;align=center;verticalAlign=middle;whiteSpace=wrap;rounded=0;" vertex="1" parent="1">
          <mxGeometry x="1230" y="350" width="60" height="30" as="geometry" />
        </mxCell>
        <mxCell id="7eTC2k8wkOf74maHDj2P-91" value="&lt;font style=&quot;font-size: 29px;&quot;&gt;&lt;b style=&quot;&quot;&gt;Docker + Airflow&lt;/b&gt;&lt;/font&gt;" style="text;html=1;align=center;verticalAlign=middle;whiteSpace=wrap;rounded=0;" vertex="1" parent="1">
          <mxGeometry x="380" y="801.34" width="239" height="30" as="geometry" />
        </mxCell>
        <mxCell id="7eTC2k8wkOf74maHDj2P-95" style="edgeStyle=orthogonalEdgeStyle;rounded=0;orthogonalLoop=1;jettySize=auto;html=1;entryX=0.978;entryY=0.437;entryDx=0;entryDy=0;entryPerimeter=0;" edge="1" parent="1" source="7eTC2k8wkOf74maHDj2P-93" target="7eTC2k8wkOf74maHDj2P-86">
          <mxGeometry relative="1" as="geometry">
            <Array as="points">
              <mxPoint x="1570" y="405" />
              <mxPoint x="1570" y="379" />
            </Array>
          </mxGeometry>
        </mxCell>
        <mxCell id="7eTC2k8wkOf74maHDj2P-96" style="edgeStyle=orthogonalEdgeStyle;rounded=0;orthogonalLoop=1;jettySize=auto;html=1;entryX=0.017;entryY=0.588;entryDx=0;entryDy=0;entryPerimeter=0;" edge="1" parent="1" source="7eTC2k8wkOf74maHDj2P-86" target="7eTC2k8wkOf74maHDj2P-93">
          <mxGeometry relative="1" as="geometry" />
        </mxCell>
        <mxCell id="7eTC2k8wkOf74maHDj2P-99" value="&lt;font style=&quot;font-size: 16px;&quot;&gt;Query&lt;/font&gt;&lt;span style=&quot;color: rgba(0, 0, 0, 0); font-family: monospace; text-align: start; text-wrap-mode: nowrap; font-size: 0px;&quot;&gt;%3CmxGraphModel%3E%3Croot%3E%3CmxCell%20id%3D%220%22%2F%3E%3CmxCell%20id%3D%221%22%20parent%3D%220%22%2F%3E%3CmxCell%20id%3D%222%22%20value%3D%22%22%20style%3D%22rounded%3D0%3BwhiteSpace%3Dwrap%3Bhtml%3D1%3B%22%20vertex%3D%221%22%20parent%3D%221%22%3E%3CmxGeometry%20x%3D%221300%22%20y%3D%22200%22%20width%3D%22190%22%20height%3D%22410%22%20as%3D%22geometry%22%2F%3E%3C%2FmxCell%3E%3CmxCell%20id%3D%223%22%20value%3D%22%26lt%3Bfont%20style%3D%26quot%3Bfont-size%3A%2018px%3B%26quot%3B%26gt%3B%26lt%3Bb%26gt%3BServing%20Data%20Warehouse%26lt%3B%2Fb%26gt%3B%26lt%3B%2Ffont%26gt%3B%22%20style%3D%22text%3Bhtml%3D1%3Balign%3Dcenter%3BverticalAlign%3Dmiddle%3BwhiteSpace%3Dwrap%3Brounded%3D0%3B%22%20vertex%3D%221%22%20parent%3D%221%22%3E%3CmxGeometry%20x%3D%221326%22%20y%3D%22219.02%22%20width%3D%22140%22%20height%3D%2230%22%20as%3D%22geometry%22%2F%3E%3C%2FmxCell%3E%3C%2Froot%3E%3C%2FmxGraphModel%3E&lt;/span&gt;" style="text;html=1;align=center;verticalAlign=middle;whiteSpace=wrap;rounded=0;" vertex="1" parent="1">
          <mxGeometry x="1510" y="330" width="60" height="30" as="geometry" />
        </mxCell>
        <mxCell id="7eTC2k8wkOf74maHDj2P-100" value="&lt;font style=&quot;font-size: 16px;&quot;&gt;Send Data&lt;/font&gt;" style="text;html=1;align=center;verticalAlign=middle;whiteSpace=wrap;rounded=0;" vertex="1" parent="1">
          <mxGeometry x="1520" y="451.78" width="60" height="30" as="geometry" />
        </mxCell>
        <mxCell id="7eTC2k8wkOf74maHDj2P-104" style="edgeStyle=orthogonalEdgeStyle;rounded=0;orthogonalLoop=1;jettySize=auto;html=1;entryX=0.75;entryY=0;entryDx=0;entryDy=0;" edge="1" parent="1" source="7eTC2k8wkOf74maHDj2P-101" target="7eTC2k8wkOf74maHDj2P-11">
          <mxGeometry relative="1" as="geometry" />
        </mxCell>
        <mxCell id="7eTC2k8wkOf74maHDj2P-101" value="&lt;font style=&quot;font-size: 18px;&quot;&gt;OpenAI API&lt;br&gt;gpt-4o-mini&lt;/font&gt;" style="text;html=1;align=center;verticalAlign=middle;whiteSpace=wrap;rounded=0;" vertex="1" parent="1">
          <mxGeometry x="723.9" y="334.01" width="118.6" height="55.99" as="geometry" />
        </mxCell>
        <mxCell id="7eTC2k8wkOf74maHDj2P-102" value="" style="shape=image;verticalLabelPosition=bottom;labelBackgroundColor=default;verticalAlign=top;aspect=fixed;imageAspect=0;image=https://static-00.iconduck.com/assets.00/openai-icon-505x512-pr6amibw.png;" vertex="1" parent="1">
          <mxGeometry x="751.91" y="266.55" width="62.58" height="63.45" as="geometry" />
        </mxCell>
        <mxCell id="7eTC2k8wkOf74maHDj2P-105" value="&lt;font style=&quot;font-size: 14px;&quot;&gt;AWS Quicksight&lt;/font&gt;" style="text;html=1;align=center;verticalAlign=middle;whiteSpace=wrap;rounded=0;" vertex="1" parent="1">
          <mxGeometry x="1675" y="481.78" width="60" height="30" as="geometry" />
        </mxCell>
      </root>
    </mxGraphModel>
  </diagram>
</mxfile>
